<svg width="142" height="43" viewBox="0 0 142 43" fill="none" xmlns="http://www.w3.org/2000/svg">
<path d="M29.163 10.6702C29.2836 10.3092 29.4437 9.98874 29.6435 9.70804C29.8432 9.42646 30.123 9.22609 30.4029 9.02572C30.6836 8.82535 30.9229 8.54377 31.2837 8.42372C31.6031 8.30367 31.963 8.26307 32.3229 8.22335C32.7232 8.14302 33.1227 8.10242 33.4835 8.18274C33.883 8.26307 34.2429 8.38312 34.6028 8.54377C34.9626 8.70442 35.3234 8.86507 35.6833 9.06544C36.0027 9.26669 36.3626 9.50679 36.6829 9.70804C37.0428 9.90841 37.3631 10.1494 37.6825 10.3092C38.0829 10.5501 38.3627 10.6305 38.6029 10.6702C38.9628 10.7108 39.2426 10.6305 39.5629 10.3498C39.7626 10.1494 39.9228 9.82809 40.2026 9.50679C40.4023 9.26669 40.6426 8.86507 40.8423 8.42372C41.0025 7.94177 41.1626 7.42098 40.8828 7.18C40.3232 6.73865 40.0829 6.578 39.8031 6.37763C39.5629 6.21698 39.2831 6.01661 38.683 5.6547C38.3231 5.41461 37.9227 5.29368 37.6033 5.13391C37.2425 4.97326 36.8826 4.81261 36.5228 4.69256C36.1629 4.57163 35.803 4.41098 35.4026 4.33066C35.0427 4.25121 34.6432 4.13028 34.2429 4.09056C33.883 4.04996 33.4835 4.13028 33.0831 4.13028C32.6828 4.13028 32.3229 4.17089 32.0034 4.21061C31.6031 4.25121 31.2432 4.25121 30.8833 4.33066C30.5234 4.41098 30.2031 4.53191 29.8432 4.65196C29.5229 4.772 29.2035 4.93266 28.8832 5.09331C28.5233 5.25396 28.203 5.41461 27.9232 5.61498C27.6038 5.81535 27.3231 6.05633 27.0838 6.2973C26.8031 6.578 26.4837 6.77837 26.2839 7.05907C26.0437 7.34065 25.9232 7.70167 25.7234 8.02209C25.5633 8.34339 25.3635 8.62409 25.2034 8.98511C25.0837 9.30642 25.0036 9.66744 24.9236 10.0285C24.8435 10.3895 24.7634 10.7505 24.7238 11.1124C24.6833 11.4734 24.6833 11.8345 24.6833 12.2352C24.6833 12.5962 24.6833 12.9979 24.7634 13.3589C24.8039 13.7199 24.9236 14.1215 25.0432 14.4419C25.1638 14.803 25.4031 15.1243 25.5633 15.4456C25.7639 15.766 26.0032 16.0873 26.2435 16.368C26.4837 16.6487 26.8031 16.8499 27.1234 17.09C27.4032 17.331 27.7235 17.5314 28.0438 17.692C28.3632 17.8527 28.7231 18.0133 29.083 18.1334C29.4033 18.2543 29.7632 18.3744 30.0834 18.4944C30.4433 18.6153 30.7636 18.7354 31.1235 18.8563C31.4429 18.9764 31.8028 19.0964 32.1231 19.2173C32.483 19.3374 32.8033 19.4177 33.1632 19.5784C33.4835 19.6984 33.8029 19.859 34.1232 19.9791C34.4831 20.1 34.7629 20.3401 35.1228 20.461C35.4431 20.5811 35.803 20.6614 36.1233 20.8221C36.4427 21.0224 36.7234 21.2228 36.9627 21.4638C37.2029 21.7445 37.4027 22.0261 37.4828 22.3871C37.5232 22.7075 37.5628 23.0685 37.4828 23.4702C37.4027 23.7915 37.2425 24.1525 37.0032 24.5135C36.8026 24.7942 36.4832 24.9946 36.1629 25.2356C35.883 25.4765 35.5232 25.6372 35.2029 25.7969C34.843 25.9576 34.5227 26.1182 34.1628 26.1986C33.7633 26.2789 33.4034 26.2383 33.0435 26.1986C32.6432 26.1589 32.2833 26.0785 31.8829 25.9576C31.523 25.8376 31.1631 25.6769 30.8032 25.4765C30.4433 25.3159 30.0834 25.1552 29.7632 24.9549C29.4033 24.7545 29.1234 24.4729 28.8032 24.2328C28.4837 23.9512 28.123 23.7509 27.9232 23.4702C27.6038 23.1091 27.4032 22.8682 27.1234 22.7878C26.8031 22.7075 26.5637 22.9088 26.2039 23.1895C25.9636 23.3501 25.7234 23.5902 25.4436 23.8718C25.1233 24.1922 24.8039 24.4729 24.6033 24.7139C24.3235 25.0749 24.0832 25.4359 24.2038 25.7969C24.3235 26.0785 24.5637 26.3989 24.9632 26.7202C25.1233 26.9206 25.3635 27.2013 25.7639 27.5226C26.0032 27.7636 26.2839 28.0037 26.6033 28.2447C26.8832 28.445 27.243 28.6057 27.5633 28.8069C27.8836 29.0073 28.203 29.168 28.5638 29.3286C28.9237 29.4884 29.2836 29.529 29.6435 29.6093C30.0034 29.7294 30.3237 29.9703 30.7232 30.0101C31.0434 30.0904 31.4429 30.0507 31.8433 30.0904C32.2032 30.131 32.5631 30.251 32.9634 30.251C33.3233 30.251 33.6832 30.2113 34.0035 30.2113C34.403 30.1707 34.7233 30.0904 35.0832 30.0507C35.4431 30.0101 35.7634 29.89 36.1233 29.8097C36.4832 29.7294 36.8026 29.649 37.1229 29.529C37.4828 29.4081 37.803 29.288 38.1225 29.1274C38.4428 28.9667 38.763 28.8069 39.0429 28.6057C39.3632 28.4053 39.6025 28.1246 39.8427 27.8836C40.1225 27.6833 40.4428 27.4829 40.6426 27.2013C40.8828 26.9206 41.0429 26.6002 41.2031 26.2789C41.3623 25.9576 41.563 25.6769 41.6826 25.3159C41.8023 24.9946 41.8824 24.6336 41.9625 24.2725C42.0029 23.9512 42.0029 23.5902 42.0029 23.2292C42.0029 22.8682 42.0029 22.5071 41.9625 22.1461C41.9229 21.8248 41.8428 21.4638 41.7627 21.1434C41.6826 20.7815 41.5225 20.461 41.4028 20.1397C41.2832 19.8184 41.2031 19.498 41.0025 19.1767C40.8423 18.896 40.603 18.6153 40.4023 18.3346C40.163 18.0937 39.8832 17.8527 39.643 17.6117C39.3632 17.4113 39.1625 17.1306 38.8431 16.9303C38.5633 16.729 38.2826 16.5692 37.9632 16.4086C37.6429 16.2479 37.3226 16.1279 36.9627 16.007C36.6433 15.9266 36.323 15.8463 36.0027 15.7263C35.7229 15.6459 35.4026 15.4853 35.0832 15.405C34.8034 15.2849 34.4831 15.2046 34.1628 15.0845C33.8434 14.9636 33.5231 14.9239 33.2028 14.803C32.8834 14.6829 32.5235 14.6026 32.1636 14.4419C31.8433 14.3219 31.523 14.1215 31.2036 13.9609C30.8428 13.8408 30.5234 13.6802 30.2031 13.4789C29.8837 13.2388 29.6435 12.9979 29.4437 12.7172C29.2035 12.4365 29.0038 12.0746 28.9633 11.7135C28.9633 11.3525 29.083 10.9915 29.163 10.6702Z" fill="#6141AC"/>
<path d="M52.0818 25.2741C52.4416 25.3147 52.8015 25.395 53.1614 25.395C53.5618 25.395 53.9217 25.395 54.2816 25.395C54.6415 25.395 55.0014 25.3544 55.3612 25.3544C55.7211 25.3544 56.081 25.3544 56.4409 25.3544C56.8008 25.3147 57.2012 25.2343 57.6015 25.2343C58.0415 25.2741 58.441 25.3147 58.8009 25.3147C59.4811 25.3544 59.4811 25.1143 60.0011 25.3544C60.4411 25.5556 60.1612 25.756 60.4807 26.2371C60.6408 26.4781 60.881 26.719 61.0412 27.0403C61.2013 27.321 61.321 27.6017 61.4407 27.923C61.6008 28.2037 61.761 28.5241 61.8005 28.8057C61.9211 29.2471 62.1208 29.4475 62.3206 29.6081C62.5608 29.7688 62.8406 29.7688 63.241 29.7688C63.5208 29.7688 63.8807 29.8085 64.2406 29.8085C64.6409 29.8085 64.9604 29.7281 65.2411 29.6884C65.681 29.6081 65.9608 29.4872 66.0805 29.2471C66.2011 29.0061 66.1606 28.6848 66.0004 28.2435C65.8808 27.9628 65.7611 27.6017 65.6009 27.2407C65.4804 26.9194 65.4408 26.5187 65.2807 26.1974C65.161 25.8363 64.9208 25.5556 64.8011 25.1946C64.6409 24.8327 64.5204 24.5123 64.3611 24.1513C64.2406 23.83 64.201 23.4283 64.0804 23.1079C63.9212 22.7469 63.7205 22.4256 63.6009 22.1043C63.4812 21.7433 63.2806 21.4229 63.1609 21.1016C63.0412 20.7803 62.9612 20.4192 62.8406 20.0988C62.7209 19.7775 62.5212 19.4562 62.4007 19.1358C62.281 18.7748 62.1208 18.4535 62.0012 18.1322C61.8806 17.8117 61.8005 17.4507 61.6809 17.1294C61.5612 16.7684 61.4407 16.4471 61.321 16.1267C61.1608 15.8054 61.0412 15.4841 60.881 15.1231C60.7614 14.8018 60.7209 14.4407 60.6012 14.1203C60.4807 13.7593 60.2413 13.4777 60.1208 13.1573C60.0011 12.836 59.921 12.475 59.8014 12.1537C59.6412 11.7926 59.6007 11.4722 59.4811 11.1112C59.3614 10.7899 59.1608 10.4686 59.0015 10.1482C58.8809 9.82688 58.8009 9.46585 58.6812 9.14455C58.5211 8.82413 58.4014 8.50283 58.2808 8.14181C58.1612 7.82051 57.9614 7.49921 57.8409 7.17879C57.7212 6.85749 57.5611 6.53707 57.4414 6.21577C57.2408 5.69409 57.2012 5.29247 57.041 5.05237C56.7216 4.57042 56.4013 4.4901 56.0009 4.45037C55.6815 4.40977 55.3216 4.40977 54.8016 4.45037C54.4417 4.45037 54.2411 4.4901 53.9217 4.73107C53.7615 4.89172 53.4817 5.05237 53.2415 5.4134C53.1218 5.65349 53.0814 5.97479 52.9212 6.33581C52.8015 6.61651 52.6414 6.89809 52.5217 7.21851C52.4012 7.53981 52.3211 7.90083 52.2014 8.26186C52.0818 8.58316 51.9612 8.90358 51.8415 9.26548C51.7219 9.5859 51.6013 9.94692 51.4816 10.2682C51.3611 10.6292 51.2018 10.9506 51.0813 11.3116C50.9616 11.632 50.9616 12.0336 50.8419 12.3549C50.7214 12.7159 50.5216 12.9966 50.402 13.3577C50.2814 13.679 50.2418 14.04 50.1213 14.401C50.0016 14.762 49.8019 15.0427 49.6813 15.4038C49.6012 15.7251 49.4816 16.0861 49.3619 16.4471C49.2414 16.7684 49.1613 17.1294 49.0416 17.4507C48.9219 17.8117 48.8014 18.1322 48.6817 18.4932C48.5621 18.8145 48.482 19.1755 48.3614 19.5365C48.2418 19.8578 48.0015 20.1791 47.8819 20.4996C47.7613 20.8209 47.8018 21.2216 47.6812 21.5835C47.5616 21.9039 47.4419 22.2252 47.3214 22.5863C47.2017 22.9076 46.9615 23.228 46.8418 23.5493C46.7221 23.9103 46.7221 24.2713 46.6016 24.5926C46.4819 24.9536 46.3218 25.2741 46.2021 25.5954C46.122 25.7957 45.9619 26.2371 45.7621 26.719C45.6416 27.0801 45.5219 27.4817 45.3618 27.8427C45.2016 28.3644 45.1215 28.8057 45.1215 29.0061C45.0415 29.6884 45.2817 29.8482 45.8017 29.8482C46.1616 29.8888 46.6016 29.8085 47.1216 29.8482C47.4815 29.8888 47.9619 29.8888 48.4019 29.8085C48.8419 29.7281 49.1613 29.5675 49.4015 29.1668C49.5616 28.8455 49.7614 28.5648 49.8819 28.2435C50.0016 27.923 50.1213 27.6017 50.2418 27.2804C50.3615 26.96 50.4416 26.6387 50.6017 26.3174C50.7214 25.997 50.8015 25.636 50.9616 25.3147C51.3215 25.3147 51.7219 25.2741 52.0818 25.2741ZM52.6018 19.9382C52.7215 19.5771 52.8411 19.2558 52.9617 18.9345C53.0814 18.5735 53.201 18.2531 53.3216 17.8921C53.4412 17.5708 53.5618 17.2495 53.7211 16.9291C53.8416 16.568 53.9217 16.2467 54.081 15.9254C54.2015 15.5644 54.4417 15.2837 54.5614 14.9624C54.6811 14.642 54.6811 14.2404 54.8016 13.8793C54.9213 13.558 55.121 13.197 55.2416 12.836C55.4413 13.197 55.561 13.5986 55.7211 13.8793C55.9209 14.2404 56.1611 14.5211 56.3212 14.8424C56.521 15.1637 56.6415 15.5247 56.7612 15.8451C56.9214 16.1664 57.041 16.5274 57.1616 16.8487C57.3208 17.2097 57.481 17.5302 57.6015 17.8921C57.7608 18.2125 57.9614 18.5338 58.0811 18.8551C58.2412 19.2161 58.2808 19.5771 58.4014 19.9382C58.5615 20.2586 58.7208 20.5799 58.8809 20.9409C58.4815 20.9409 58.1612 20.9815 57.8013 20.9815C57.4009 20.9815 57.041 20.9815 56.6811 20.9815C56.2816 20.9815 55.9209 20.9012 55.561 20.9012C55.2011 20.9012 54.8412 20.9409 54.4417 20.9409C54.081 20.9409 53.7211 20.9409 53.3216 20.9409C52.9617 20.9409 52.5613 20.9815 52.1618 20.9815C52.2815 20.6205 52.4812 20.2586 52.6018 19.9382Z" fill="#6141AC"/>
<path d="M85.479 21.0216C85.3989 21.4232 85.3188 21.7843 85.1992 22.1453C85.0786 22.5063 84.8789 22.8276 84.7187 23.148C84.5586 23.509 84.3588 23.8303 84.1591 24.111C83.8793 24.3917 83.6787 24.7536 83.3988 24.954C83.0794 25.195 82.7591 25.3954 82.3993 25.5154C82.079 25.6761 81.6795 25.7564 81.3196 25.8367C80.9588 25.917 80.5593 25.9974 80.1994 25.9974C79.7991 25.9974 79.4392 25.917 79.0793 25.8764C78.7194 25.7961 78.3595 25.7158 77.9996 25.556C77.6397 25.4351 77.3194 25.2347 76.9991 25.0343C76.7193 24.7934 76.4791 24.5127 76.2398 24.232C75.9995 23.9504 75.6793 23.7103 75.4795 23.389C75.3194 23.0677 75.1592 22.7473 74.9991 22.426C74.8398 22.0649 74.7993 21.7039 74.6797 21.3826C74.5195 21.0216 74.3594 20.7409 74.2397 20.3799C74.1596 20.0189 73.9995 19.6976 73.9194 19.3365C73.8393 18.9755 73.8393 18.6145 73.7997 18.2535C73.7593 17.8924 73.6396 17.5305 73.6396 17.1695C73.6396 16.8085 73.6 16.4475 73.6396 16.0864C73.6396 15.7254 73.7593 15.3644 73.7997 15.0034C73.8798 14.6821 73.9194 14.3211 74.0399 13.96C74.1191 13.599 74.1992 13.238 74.3198 12.9167C74.4394 12.5557 74.6392 12.275 74.7993 11.9139C74.9595 11.5926 74.9991 11.2316 75.1997 10.9103C75.3994 10.6296 75.6397 10.3489 75.879 10.1079C76.1192 9.82725 76.4395 9.62687 76.7193 9.42562C76.9991 9.18553 77.2394 8.90395 77.5597 8.7839C77.8791 8.62325 78.239 8.5032 78.5997 8.42288C78.9191 8.34255 79.279 8.30283 79.6389 8.26223C79.9988 8.26223 80.3596 8.22251 80.7195 8.30283C81.0794 8.34255 81.4393 8.38227 81.7595 8.5032C82.1194 8.62325 82.3993 8.86423 82.7187 9.02488C83.039 9.18553 83.3988 9.26585 83.7191 9.46622C84.0394 9.6666 84.2788 9.94729 84.5586 10.1883C84.8789 10.4292 85.1992 10.5899 85.5186 10.7497C85.8785 10.9906 86.1592 11.2713 86.4786 11.3119C86.8385 11.3923 87.1588 11.2316 87.5187 11.0312C87.7589 10.8706 88.0792 10.6693 88.359 10.3083C88.5992 9.9879 88.7585 9.6666 88.8386 9.3859C88.9987 9.02488 89.0392 8.70357 88.9591 8.38227C88.879 8.06185 88.6784 7.78116 88.3986 7.49958C88.1584 7.21888 87.919 6.97879 87.6788 6.73781C87.399 6.49683 87.0391 6.37679 86.7593 6.17553C86.4786 5.97516 86.2393 5.69446 85.9586 5.53381C85.6391 5.33344 85.3188 5.25311 84.9986 5.09246C84.6791 4.93181 84.3993 4.73144 84.079 4.61139C83.7191 4.49046 83.3988 4.41014 83.039 4.32981C82.7187 4.25037 82.3588 4.20977 82.0394 4.17005C81.6795 4.12944 81.3196 4.08972 80.9993 4.04912C80.6394 4.04912 80.2795 4.08972 79.9592 4.08972C79.5993 4.08972 79.2394 4.0094 78.8795 4.04912C78.5593 4.08972 78.1994 4.25037 77.8791 4.32981C77.5192 4.41014 77.1593 4.45074 76.7994 4.57079C76.4791 4.65112 76.0796 4.65112 75.7593 4.77116C75.3994 4.89209 75.1196 5.17279 74.8398 5.33344C74.5195 5.49409 74.1992 5.65386 73.8798 5.85511C73.6 6.05549 73.2797 6.25586 73.0395 6.49683C72.7597 6.73781 72.5599 7.01851 72.3197 7.2992C72.0795 7.5799 71.9193 7.9012 71.7196 8.22251C71.5198 8.5032 71.2796 8.7839 71.0799 9.1052C70.9197 9.42562 70.8001 9.74692 70.6399 10.1079C70.5194 10.4292 70.5194 10.7903 70.3997 11.1513C70.3196 11.4726 70.2395 11.8336 70.1595 12.154C70.0794 12.5151 69.9201 12.8364 69.8401 13.1974C69.76 13.5584 69.7195 13.8797 69.6799 14.2407C69.5998 14.6018 69.5998 14.9628 69.5594 15.2841C69.5198 15.6451 69.5198 16.0061 69.5198 16.3671C69.4802 16.7282 69.4397 17.0892 69.4397 17.4105C69.4397 17.7715 69.3596 18.1325 69.4001 18.4936C69.4001 18.8555 69.5198 19.2165 69.5594 19.5369C69.5998 19.8979 69.6799 20.259 69.76 20.5803C69.7996 20.9413 69.8797 21.3023 69.9597 21.6236C70.0398 21.9846 70.1595 22.3059 70.28 22.6669C70.3601 22.9874 70.3601 23.389 70.4798 23.7103C70.5994 24.0307 70.8397 24.3123 70.9998 24.6733C71.16 24.9937 71.24 25.3548 71.4398 25.6363C71.5999 25.9568 71.8393 26.2375 72.0399 26.519C72.2396 26.8395 72.4394 27.1202 72.7192 27.4017C72.9594 27.6418 73.2392 27.8828 73.5199 28.0832C73.7997 28.3241 74.0399 28.5651 74.3594 28.7655C74.6392 28.9659 74.9199 29.2068 75.2393 29.3675C75.5596 29.5281 75.9195 29.6482 76.2794 29.7691C76.5997 29.8892 76.9191 30.0092 77.279 30.0895C77.6397 30.1699 77.9996 30.2502 78.3595 30.2899C78.6789 30.3305 79.0397 30.2899 79.3996 30.3305C79.7595 30.3305 80.1194 30.3702 80.4388 30.3305C80.7995 30.3305 81.1594 30.1699 81.4788 30.1301C81.8387 30.0498 82.1995 30.0895 82.5594 30.0092C82.8788 29.8892 83.2387 29.8088 83.559 29.6888C83.8793 29.5679 84.1591 29.3278 84.4794 29.1671C84.7988 29.0065 85.1587 28.9261 85.4385 28.7258C85.7588 28.5651 86.0386 28.3648 86.3193 28.1635C86.5991 27.9234 86.7989 27.6418 87.0391 27.4017C87.3189 27.1608 87.5987 26.9604 87.839 26.6788C88.0792 26.3981 88.3185 26.158 88.5191 25.8764C88.7189 25.5957 88.799 25.2347 88.9987 24.9134C89.1588 24.593 89.4387 24.352 89.5988 24.0307C89.7185 23.7103 89.7185 23.3493 89.839 22.9874C89.9587 22.6669 90.0784 22.3456 90.1584 21.9846C90.2385 21.6633 90.279 21.3023 90.3186 20.9413C90.3987 20.6209 90.4787 20.259 90.5183 19.8979C90.5183 19.5775 90.5183 19.2165 90.5183 18.8555C90.5183 18.4936 90.5588 18.1325 90.4787 17.8121C90.3987 17.4511 90.3186 17.1298 90.1584 16.8085C89.9587 16.5278 89.6789 16.3274 89.3991 16.1271C89.1184 15.9664 88.799 15.8057 88.4391 15.7651C88.0792 15.7651 87.7184 15.8057 87.3585 15.7651C87.0391 15.7651 86.6792 15.7651 86.3193 15.7651C85.999 15.7651 85.6391 15.7254 85.3188 15.7254C84.959 15.7254 84.5991 15.7254 84.2788 15.7254C83.9189 15.6848 83.559 15.6054 83.2387 15.6054C82.8788 15.6054 82.5189 15.5648 82.159 15.5648C81.8387 15.5648 81.4788 15.6451 81.119 15.6451C80.7995 15.6451 80.4388 15.7254 80.0789 15.7254C79.7595 15.7651 79.3996 15.6848 79.0397 15.7254C78.759 15.7254 78.5997 16.0864 78.4792 16.4881C78.3991 16.8491 78.1994 17.2101 78.1994 17.5305C78.1589 17.8518 78.1589 18.2535 78.1994 18.5739C78.2794 18.9349 78.5197 19.1759 78.7995 19.4169C79.0793 19.6172 79.3996 19.7382 79.7991 19.7779C80.159 19.8176 80.5593 19.7779 80.9192 19.7779C81.3592 19.8176 81.7595 19.9385 82.1194 19.9385C82.5189 19.9783 82.9193 19.9783 83.3188 19.9783C83.6787 20.0189 84.079 19.9783 84.519 19.9783C84.8789 19.9783 85.2792 19.8979 85.7588 19.8979C85.6787 20.2996 85.5591 20.7003 85.479 21.0216Z" fill="#6141AC"/>
<path d="M100.559 25.2741C100.919 25.3147 101.279 25.395 101.639 25.395C102.039 25.395 102.399 25.395 102.759 25.395C103.119 25.395 103.479 25.3544 103.839 25.3544C104.199 25.3544 104.559 25.3544 104.918 25.3544C105.278 25.3147 105.679 25.2343 106.079 25.2343C106.519 25.2741 106.919 25.3147 107.278 25.3147C107.959 25.3544 107.959 25.1143 108.479 25.3544C108.919 25.5556 108.639 25.756 108.958 26.2371C109.118 26.4781 109.359 26.719 109.519 27.0403C109.679 27.321 109.799 27.6017 109.918 27.923C110.078 28.2037 110.238 28.5241 110.278 28.8057C110.399 29.2471 110.598 29.4475 110.798 29.6081C111.038 29.7688 111.318 29.7688 111.719 29.7688C111.998 29.7688 112.358 29.8085 112.718 29.8085C113.118 29.8085 113.438 29.7281 113.719 29.6884C114.159 29.6081 114.438 29.4872 114.558 29.2471C114.679 29.0061 114.638 28.6848 114.478 28.2435C114.358 27.9628 114.239 27.6017 114.078 27.2407C113.958 26.9194 113.918 26.5187 113.758 26.1974C113.639 25.8363 113.398 25.5556 113.279 25.1946C113.118 24.8327 112.998 24.5123 112.839 24.1513C112.718 23.83 112.679 23.4283 112.558 23.1079C112.399 22.7469 112.198 22.4256 112.078 22.1043C111.959 21.7433 111.758 21.4229 111.638 21.1016C111.519 20.7803 111.439 20.4192 111.318 20.0988C111.198 19.7775 110.999 19.4562 110.878 19.1358C110.759 18.7748 110.598 18.4535 110.479 18.1322C110.358 17.8117 110.278 17.4507 110.158 17.1294C110.039 16.7684 109.918 16.4471 109.799 16.1267C109.638 15.8054 109.519 15.4841 109.359 15.1231C109.239 14.8018 109.198 14.4407 109.079 14.1203C108.958 13.7593 108.719 13.4777 108.598 13.1573C108.479 12.836 108.399 12.475 108.279 12.1537C108.119 11.7926 108.078 11.4722 107.959 11.1112C107.839 10.7899 107.638 10.4686 107.479 10.1482C107.358 9.82688 107.278 9.46585 107.159 9.14455C106.999 8.82413 106.879 8.50283 106.758 8.14181C106.639 7.82051 106.439 7.49921 106.318 7.17879C106.199 6.85749 106.039 6.53707 105.919 6.21577C105.718 5.69409 105.679 5.29247 105.519 5.05237C105.199 4.57042 104.879 4.4901 104.478 4.45037C104.159 4.40977 103.799 4.40977 103.279 4.45037C102.919 4.45037 102.719 4.4901 102.399 4.73107C102.239 4.89172 101.959 5.05237 101.719 5.4134C101.599 5.65349 101.559 5.97479 101.399 6.33581C101.279 6.61651 101.119 6.89809 100.999 7.21851C100.879 7.53981 100.799 7.90083 100.679 8.26186C100.559 8.58316 100.439 8.90358 100.319 9.26548C100.199 9.5859 100.079 9.94692 99.9592 10.2682C99.8386 10.6292 99.6794 10.9506 99.5588 11.3116C99.4392 11.632 99.4392 12.0336 99.3195 12.3549C99.1989 12.7159 98.9992 12.9966 98.8795 13.3577C98.759 13.679 98.7194 14.04 98.5988 14.401C98.4792 14.762 98.2794 15.0427 98.1589 15.4038C98.0788 15.7251 97.9591 16.0861 97.8394 16.4471C97.7189 16.7684 97.6388 17.1294 97.5192 17.4507C97.3995 17.8117 97.2789 18.1322 97.1593 18.4932C97.0396 18.8145 96.9595 19.1755 96.839 19.5365C96.7193 19.8578 96.4791 20.1791 96.3594 20.4996C96.2389 20.8209 96.2793 21.2216 96.1588 21.5835C96.0391 21.9039 95.9194 22.2252 95.7989 22.5863C95.6792 22.9076 95.439 23.228 95.3193 23.5493C95.1997 23.9103 95.1997 24.2713 95.0791 24.5926C94.9594 24.9536 94.7993 25.2741 94.6796 25.5954C94.5996 25.7957 94.4394 26.2371 94.2397 26.719C94.1191 27.0801 93.9994 27.4817 93.8393 27.8427C93.6792 28.3644 93.5991 28.8057 93.5991 29.0061C93.519 29.6884 93.7592 29.8482 94.2793 29.8482C94.6392 29.8888 95.0791 29.8085 95.5992 29.8482C95.959 29.8888 96.4395 29.8888 96.8794 29.8085C97.3194 29.7281 97.6388 29.5675 97.879 29.1668C98.0392 28.8455 98.2389 28.5648 98.3595 28.2435C98.4792 27.923 98.5988 27.6017 98.7194 27.2804C98.839 26.96 98.9191 26.6387 99.0793 26.3174C99.1989 25.997 99.279 25.636 99.4392 25.3147C99.799 25.3147 100.199 25.2741 100.559 25.2741ZM101.079 19.9382C101.199 19.5771 101.319 19.2558 101.439 18.9345C101.559 18.5735 101.679 18.2531 101.799 17.8921C101.919 17.5708 102.039 17.2495 102.199 16.9291C102.319 16.568 102.399 16.2467 102.558 15.9254C102.679 15.5644 102.919 15.2837 103.039 14.9624C103.159 14.642 103.159 14.2404 103.279 13.8793C103.399 13.558 103.599 13.197 103.719 12.836C103.919 13.197 104.039 13.5986 104.199 13.8793C104.398 14.2404 104.639 14.5211 104.799 14.8424C104.999 15.1637 105.119 15.5247 105.239 15.8451C105.399 16.1664 105.519 16.5274 105.639 16.8487C105.798 17.2097 105.959 17.5302 106.079 17.8921C106.238 18.2125 106.439 18.5338 106.559 18.8551C106.719 19.2161 106.758 19.5771 106.879 19.9382C107.039 20.2586 107.198 20.5799 107.358 20.9409C106.959 20.9409 106.639 20.9815 106.279 20.9815C105.878 20.9815 105.519 20.9815 105.159 20.9815C104.759 20.9815 104.398 20.9012 104.039 20.9012C103.679 20.9012 103.319 20.9409 102.919 20.9409C102.558 20.9409 102.199 20.9409 101.799 20.9409C101.439 20.9409 101.039 20.9815 100.639 20.9815C100.759 20.6205 100.959 20.2586 101.079 19.9382Z" fill="#6141AC"/>
<path d="M6.5097 25.1178C6.5097 25.8566 6.25276 26.5098 5.73888 27.042C5.225 27.592 4.59146 27.8674 3.85496 27.8674C3.10086 27.8674 2.46731 27.592 1.95344 27.042C1.43868 26.5098 1.19934 25.8566 1.19934 25.1178C1.19934 24.3957 1.43868 23.7425 1.95344 23.1926C2.46731 22.6427 3.10086 22.3682 3.85496 22.3682C4.59146 22.3682 5.225 22.6427 5.73888 23.1926C6.25276 23.7425 6.5097 24.3957 6.5097 25.1178ZM7.70904 28.8983V21.3372H6.5097V22.6427C6.44106 22.5403 6.35571 22.4538 6.28708 22.3682C5.5673 21.5773 4.69441 21.165 3.66577 21.165C2.6213 21.165 1.74753 21.5773 1.02775 22.3682C0.342291 23.1582 0 24.0691 0 25.1178C0 26.1832 0.342291 27.0941 1.02775 27.8674C1.74753 28.675 2.6213 29.0705 3.66577 29.0705C4.69441 29.0705 5.5673 28.675 6.28708 27.8674C6.35571 27.7985 6.44106 27.7129 6.5097 27.6096V28.8983H7.70904Z" fill="black"/>
<path d="M16.2734 25.1193C16.2734 25.8581 16.0164 26.5113 15.5026 27.0436C14.9887 27.5935 14.3551 27.8689 13.6186 27.8689C12.8645 27.8689 12.231 27.5935 11.7171 27.0436C11.2024 26.5113 10.963 25.8581 10.963 25.1193C10.963 24.3972 11.2024 23.744 11.7171 23.1941C12.231 22.6442 12.8645 22.3697 13.6186 22.3697C14.3551 22.3697 14.9887 22.6442 15.5026 23.1941C16.0164 23.744 16.2734 24.3972 16.2734 25.1193ZM17.4727 28.8999V16.0107H16.2734V22.6442C16.2047 22.5418 16.1194 22.4553 16.0507 22.3697C15.331 21.5788 14.4581 21.1666 13.4294 21.1666C12.385 21.1666 11.5112 21.5788 10.7914 22.3697C10.106 23.1597 9.76367 24.0706 9.76367 25.1193C9.76367 26.1847 10.106 27.0956 10.7914 27.8689C11.5112 28.6765 12.385 29.072 13.4294 29.072C14.4581 29.072 15.331 28.6765 16.0507 27.8689C16.1194 27.8 16.2047 27.7144 16.2734 27.6111V28.8999H17.4727Z" fill="black"/>
<path d="M2.42684 42.4215H1.84961V37.1006H2.77529L4.38028 41.6059H4.45771L6.06622 37.1006H6.9567V42.4215H6.36539V38.0786L6.27388 38.0645L4.70761 42.4215H4.08814L2.51483 38.0645L2.42684 38.0786V42.4215Z" fill="black"/>
<path d="M21.3545 42.4215H20.6893L20.2 40.9633H17.9404L17.4441 42.4215H16.793L18.6408 37.1006H19.5067L21.3545 42.4215ZM19.0245 37.7432L18.1129 40.4372H20.0205L19.1125 37.7432H19.0245Z" fill="black"/>
<path d="M31.1914 42.4215V37.1006H33.1167C33.4731 37.1006 33.7722 37.1597 34.0142 37.2771C34.2553 37.3954 34.4366 37.5614 34.5562 37.775C34.6777 37.9895 34.7393 38.2437 34.7393 38.5376C34.7393 38.8677 34.6566 39.1405 34.4929 39.3568C34.3283 39.5713 34.0714 39.731 33.7221 39.8369V39.9146C33.8928 39.9835 34.0327 40.0903 34.1409 40.2359C34.2509 40.3798 34.3521 40.5961 34.4436 40.8856L34.9364 42.4215H34.2923L33.7643 40.7938C33.701 40.6031 33.6279 40.4539 33.5461 40.3454C33.4634 40.235 33.3595 40.1565 33.2328 40.1088C33.1079 40.0594 32.9486 40.0347 32.7542 40.0347H31.8144V42.4215H31.1914ZM33.1026 39.5015C33.4335 39.5015 33.6798 39.4256 33.8417 39.272C34.0037 39.1167 34.0846 38.8819 34.0846 38.5659C34.0846 38.2507 34.0037 38.0168 33.8417 37.8632C33.6798 37.7105 33.4335 37.6337 33.1026 37.6337H31.8144V39.5015H33.1026Z" fill="black"/>
<path d="M44.9219 42.4215V37.1006H45.5449V39.4274H45.6575L47.8362 37.1006H48.5155V37.1924L46.2206 39.6781L48.6985 42.3297V42.4215H47.984L45.6575 39.9711H45.5449V42.4215H44.9219Z" fill="black"/>
<path d="M59.0468 39.9146V41.906H61.75V42.4215H58.4238V37.1006H61.6936V37.6161H59.0468V39.3956H61.3804V39.9146H59.0468Z" fill="black"/>
<path d="M75.0612 37.1006V37.6337H73.3999V42.4215H72.7804V37.6337H71.1191V37.1006H75.0612Z" fill="black"/>
<path d="M85.4999 42.4215H84.877V37.1006H85.4999V42.4215Z" fill="black"/>
<path d="M96.5366 42.4215H95.9277V37.1006H96.6915L99.2785 41.1645L99.37 41.1504V37.1006H99.9754V42.4215H99.3243L96.6282 38.0716L96.5366 38.0857V42.4215Z" fill="black"/>
<path d="M112.394 42.4997C111.948 42.4997 111.555 42.3973 111.215 42.1925C110.874 41.9877 110.608 41.6805 110.416 41.271C110.226 40.8614 110.131 40.3591 110.131 39.7633C110.131 39.1657 110.233 38.6617 110.437 38.2522C110.643 37.8426 110.927 37.5354 111.289 37.3306C111.652 37.1258 112.071 37.0234 112.545 37.0234C113.052 37.0234 113.468 37.1152 113.795 37.2988C114.123 37.4824 114.355 37.757 114.488 38.1215L114.083 38.3616H113.992C113.853 38.0844 113.666 37.8849 113.432 37.7649C113.2 37.6449 112.904 37.5848 112.545 37.5848C111.381 37.5848 110.8 38.3113 110.8 39.7633C110.8 40.5171 110.946 41.068 111.24 41.4157C111.533 41.7618 111.942 41.9348 112.468 41.9348C112.951 41.9348 113.314 41.8244 113.556 41.6029C113.797 41.3822 113.918 41.0335 113.918 40.5578V40.0882H112.408V39.5868H114.523V42.422H113.946V41.7088L113.869 41.6911C113.728 41.9648 113.532 42.1678 113.281 42.302C113.032 42.4335 112.736 42.4997 112.394 42.4997Z" fill="black"/>
<path d="M132.373 0L122.746 8.69168V17.3834L132.373 8.69168L142 17.3834V8.69168L132.373 0Z" fill="#6141AC"/>
<path d="M132.373 12.5547L122.746 21.2464V29.938L132.373 21.2464L142 29.938V21.2464L132.373 12.5547Z" fill="#6141AC"/>
<path d="M132.373 25.1094L122.746 33.8011V42.4927L132.373 33.8011L142 42.4927V33.8011L132.373 25.1094Z" fill="#6141AC"/>
</svg>
